# xmcd
#
# Track frame offsets:
#  150
#  15550
#  38395
#  53037
#  69220
#  82942
#  99530
#  118595
#  137725
#  154412
#  171750
#  191195
#  207295
#  209500
#  211705
#  214605
#  217317
#  220337
#
# Disc length: 2986 seconds
#
# Revision: 0
# Processed by: cddbd v1.5.2PL0 Copyright (c) Steve Scherf et al.
# Submitted via: Collectorz.com_Music_Collector 6.11
#
DISCID=080ba812
DTITLE=Various Artist - NfS Country Singles Volume 25
DYEAR=1995
DGENRE=Country
TTITLE0=Shanley del - Somewhere Out There
TTITLE1=Graeme Connors - The Great Australian Dream
TTITLE2=T.C. Cassidy - Hooked On You
TTITLE3=Smoky Dawson and John Williamson - Humpin' My Bluey
TTITLE4=Laurel Edwards - Little Girl Dreams
TTITLE5=Allan Caswell - Another Lost Soul (Darling Hurst Road)
TTITLE6=Julie Watts - Just One More
TTITLE7=Steve Gibson - Simple Man
TTITLE8=Melinda Johnstone - Tamworth Calling
TTITLE9=The Mavericks - Here Comes The Rain
TTITLE10=Joe Ely - All Just To Get You
TTITLE11=Mark Chesnutt - Trouble
TTITLE12=Allan Caswell - Interview
TTITLE13=Allan Caswell - Interview
TTITLE14=Allan Caswell - Interview
TTITLE15=Allan Caswell - Interview
TTITLE16=Allan Caswell - Interview
TTITLE17=Jimmy Little - Interview
EXTD=
EXTT0=
EXTT1=
EXTT2=
EXTT3=
EXTT4=
EXTT5=
EXTT6=
EXTT7=
EXTT8=
EXTT9=
EXTT10=
EXTT11=
EXTT12=
EXTT13=
EXTT14=
EXTT15=
EXTT16=
EXTT17=
PLAYORDER=
